<svg width="32" height="32" viewBox="0 0 32 32" fill="none" xmlns="http://www.w3.org/2000/svg">
<rect x="0.5" y="0.5" width="31" height="31" rx="15.5" stroke="#707070"/>
<path d="M21.8071 10.833H10.4738C9.69463 10.833 9.06421 11.4705 9.06421 12.2497L9.05713 20.7497C9.05713 21.5288 9.69463 22.1663 10.4738 22.1663H21.8071C22.5863 22.1663 23.2238 21.5288 23.2238 20.7497V12.2497C23.2238 11.4705 22.5863 10.833 21.8071 10.833ZM21.5238 13.8434L16.5159 16.9743C16.2892 17.1159 15.9917 17.1159 15.765 16.9743L10.7571 13.8434C10.6861 13.8036 10.6239 13.7497 10.5743 13.6851C10.5247 13.6205 10.4887 13.5465 10.4685 13.4676C10.4484 13.3886 10.4444 13.3065 10.4569 13.226C10.4694 13.1455 10.4981 13.0684 10.5413 12.9993C10.5845 12.9302 10.6412 12.8706 10.7081 12.8241C10.7749 12.7776 10.8505 12.7452 10.9303 12.7287C11.0101 12.7123 11.0924 12.7122 11.1722 12.7285C11.252 12.7447 11.3277 12.7771 11.3946 12.8234L16.1405 15.7913L20.8863 12.8234C20.9533 12.7771 21.0289 12.7447 21.1087 12.7285C21.1886 12.7122 21.2708 12.7123 21.3506 12.7287C21.4304 12.7452 21.506 12.7776 21.5729 12.8241C21.6397 12.8706 21.6965 12.9302 21.7396 12.9993C21.7828 13.0684 21.8115 13.1455 21.824 13.226C21.8365 13.3065 21.8326 13.3886 21.8124 13.4676C21.7922 13.5465 21.7562 13.6205 21.7066 13.6851C21.657 13.7497 21.5948 13.8036 21.5238 13.8434Z" fill="#707070"/>
</svg>
