<svg width="160" height="31" viewBox="0 0 160 31" fill="none" xmlns="http://www.w3.org/2000/svg">
<g clip-path="url(#clip0_5001_781)">
<path fill-rule="evenodd" clip-rule="evenodd" d="M39.891 4.61564V16.6591H38.6927V6.0684L31.9037 16.6591H30.6885V4.61564H31.8868V14.6058L38.2523 4.61564H39.891ZM42.3505 4.61564H43.5488V9.91194H49.7551V4.61564H50.9534V16.6591H49.7551V11.0008H43.5488V16.6591H42.3505V4.61564ZM55.0375 5.7045H52.2998V4.61564H58.9736V5.7045H56.2359V16.6591H55.0375V5.7045ZM60.3143 4.61564H66.8607V5.7045H61.5136V10.042H66.6827V11.1318H61.5136V15.5693H66.8607V16.6591H60.3143V4.61564ZM77.1754 4.61564V16.6591H75.9771V5.7045H72.2162L69.188 16.6591H67.9269L71.328 4.61564H77.1754ZM87.8162 4.61564V16.6591H86.6178V5.7045H82.8579L79.8288 16.6591H78.5677L81.9697 4.61564H87.8162ZM90.2756 4.61564H96.822V5.7045H91.474V10.042H96.643V11.1318H91.474V15.5693H96.822V16.6591H90.2756V4.61564ZM98.9545 4.61564H100.153V11.5419L105.676 4.61564H107.199L102.472 10.4851L107.199 16.6591H105.708L101.71 11.4439L100.153 13.3699V16.6591H98.9545V4.61564ZM110.972 5.7045H108.235V4.61564H114.908V5.7045H112.171V16.6591H110.972V5.7045ZM119.022 11.2157V12.3046H114.632V11.2157H119.022ZM124.855 4.61564H126.184L131.315 16.6591H130.019L128.286 12.6176H122.714L120.982 16.6591H119.686L124.855 4.61564ZM127.817 11.5278L125.519 6.00052L123.185 11.5278H127.817ZM132.721 4.61564H135.526C136.104 4.61564 136.609 4.65524 137.04 4.73254C137.474 4.81079 137.877 4.97765 138.247 5.22182C138.679 5.50559 139.024 5.87985 139.275 6.33991C139.527 6.80373 139.656 7.29396 139.656 7.81246C139.656 8.79008 139.214 9.59423 138.331 10.224C138.957 10.4766 139.441 10.8745 139.785 11.4062C140.131 11.9398 140.304 12.5573 140.304 13.2558C140.304 13.8045 140.17 14.3268 139.91 14.8226C139.648 15.3185 139.288 15.7182 138.828 16.0067C138.503 16.2104 138.164 16.3546 137.823 16.447C137.478 16.5403 137.139 16.5988 136.811 16.6186C136.482 16.6374 136.056 16.6591 135.542 16.6591H132.721V4.61564ZM135.397 15.5693C135.966 15.5693 136.451 15.5467 136.846 15.5071C137.241 15.4675 137.605 15.3704 137.923 15.2082C138.264 15.0348 138.544 14.7576 138.763 14.3937C138.981 14.0298 139.089 13.6546 139.089 13.269C139.089 12.7562 138.955 12.3074 138.69 11.9218C138.425 11.5382 138.062 11.2544 137.599 11.0988C137.105 10.9329 136.296 10.8575 135.186 10.8575H133.92V15.5693H135.397ZM135.219 9.7677C135.737 9.7677 136.172 9.74696 136.522 9.70548C136.869 9.66494 137.195 9.56501 137.489 9.40946C137.772 9.25956 138.008 9.02294 138.188 8.71183C138.368 8.3979 138.457 8.06794 138.457 7.72856C138.457 7.4052 138.368 7.08844 138.19 6.78299C138.013 6.47943 137.785 6.23432 137.505 6.06557C137.241 5.90719 136.931 5.8082 136.584 5.76672C136.24 5.72619 135.813 5.7045 135.315 5.7045H133.92V9.7677H135.219ZM143.348 5.7045H140.611V4.61564H147.284V5.7045H144.548V16.6591H143.348V5.7045ZM159.869 10.6124C159.869 11.7484 159.583 12.7977 159.013 13.7583C158.442 14.7218 157.667 15.4807 156.695 16.0369C155.723 16.5922 154.67 16.8703 153.539 16.8703C152.435 16.8703 151.395 16.5922 150.424 16.0426C149.451 15.491 148.672 14.7416 148.091 13.7932C147.511 12.8457 147.22 11.8134 147.22 10.6944C147.22 9.5537 147.505 8.50443 148.072 7.54661C148.639 6.58879 149.411 5.82989 150.384 5.27273C151.355 4.71652 152.407 4.43652 153.539 4.43652C154.651 4.43652 155.694 4.7118 156.668 5.26236C157.641 5.81292 158.42 6.56051 159 7.50796C159.58 8.45635 159.869 9.48865 159.869 10.6124ZM148.418 10.6944C148.418 11.6041 148.657 12.4441 149.128 13.2096C149.6 13.977 150.235 14.586 151.028 15.0376C151.822 15.4882 152.664 15.7135 153.555 15.7135C154.244 15.7135 154.9 15.5834 155.526 15.3195C156.151 15.0564 156.701 14.6907 157.173 14.2221C157.643 13.7555 158.014 13.2096 158.276 12.5903C158.539 11.9699 158.671 11.311 158.671 10.6124C158.671 9.7083 158.435 8.86738 157.966 8.09811C157.498 7.32978 156.867 6.71606 156.077 6.26732C155.287 5.81858 154.446 5.59326 153.555 5.59326C152.864 5.59326 152.204 5.7243 151.582 5.9845C150.956 6.24658 150.404 6.61613 149.93 7.0875C149.453 7.56169 149.079 8.10942 148.815 8.73069C148.552 9.34912 148.418 10.0043 148.418 10.6944Z" fill="#0B0D0D"/>
<path fill-rule="evenodd" clip-rule="evenodd" d="M0.130859 9.96378V22.6794C0.130859 24.5969 0.972226 26.292 2.23615 27.262L18.4788 2.18998V0L4.15687 22.0591V3.75209L0.130859 9.96378Z" fill="#C6CC11"/>
<path fill-rule="evenodd" clip-rule="evenodd" d="M20.9847 21.0365V8.32092C20.9847 6.4034 20.1433 4.70836 18.8794 3.73828L2.63574 28.8104V31.0003L16.9587 8.94124V27.2482L20.9847 21.0365Z" fill="#0075B1"/>
<path fill-rule="evenodd" clip-rule="evenodd" d="M11.8095 22.3115C13.1334 22.3115 14.2118 23.423 14.2118 24.7871C14.2118 26.1494 13.1334 27.2618 11.8095 27.2618C10.4866 27.2618 9.40723 26.1494 9.40723 24.7871C9.40723 23.423 10.4866 22.3115 11.8095 22.3115Z" fill="#0075B1"/>
<path d="M30.9219 22.2H31.4512V24.5408H34.1918V22.2H34.7221V27.5218H34.1918V25.0226H31.4512V27.5218H30.9219V22.2ZM40.6697 22.2H41.2581L43.5255 27.5218H42.953L42.1876 25.7362H39.7253L38.9598 27.5218H38.3874L40.6697 22.2ZM41.9796 25.2535L40.9649 22.8118L39.9333 25.2535H41.9796ZM46.9247 27.0391L48.2917 22.2H50.8036V27.0391H51.1615V27.5218H46.6455V27.0391H46.9247ZM50.2743 27.0391V22.6827H48.6843L47.4831 27.0391H50.2743ZM54.9327 22.2H57.8241V22.6827H55.4621V24.5983H57.7463V25.0801H55.4621V27.0391H57.8241V27.5218H54.9327V22.2ZM63.9198 24.9792L61.9653 27.5218H61.3095L63.3979 24.7935L61.3095 22.2H61.9813C62.0628 22.3009 62.1921 22.4621 62.3682 22.6818C62.5453 22.9024 62.7439 23.1522 62.966 23.4303C63.188 23.7084 63.4026 23.978 63.6087 24.2382C63.8167 24.4993 63.9198 24.6313 63.9198 24.6351V22.2H64.4501V24.6257L66.3905 22.2H67.0632L64.9719 24.7935L67.0632 27.5218H66.4036L64.4501 24.9792V27.5218H63.9198V24.9792ZM70.6901 22.2H71.2194V24.5408H73.9609V22.2H74.4903V27.5218H73.9609V25.0226H71.2194V27.5218H70.6901V22.2ZM78.6212 27.5218V22.2H79.1506V24.3457H80.1465C80.437 24.3457 80.6928 24.3683 80.913 24.4154C81.1331 24.4607 81.3355 24.554 81.5191 24.6907C81.9202 24.9849 82.1207 25.3959 82.1207 25.9229C82.1207 26.1944 82.0607 26.4452 81.9398 26.6752C81.8208 26.9071 81.6494 27.0928 81.4264 27.2333C81.2924 27.3191 81.1509 27.3822 80.9991 27.4228C80.8492 27.4643 80.6965 27.4906 80.5419 27.501C80.3883 27.5123 80.2121 27.5189 80.0107 27.5218H78.6212ZM82.8571 22.2H83.3874V27.5218H82.8571V22.2ZM80.0603 24.8284H79.1506V27.0391H79.8317C79.8683 27.0391 79.9282 27.04 80.0079 27.0429C80.0875 27.0447 80.1484 27.0466 80.1878 27.0466C80.4913 27.0466 80.7387 27.0051 80.9326 26.9222C81.1397 26.8373 81.3008 26.7082 81.417 26.5347C81.5323 26.3613 81.5904 26.1595 81.5904 25.9304C81.5904 25.7513 81.5501 25.5807 81.4676 25.4213C81.387 25.262 81.2718 25.1357 81.1256 25.0442C80.9851 24.9547 80.8314 24.8953 80.6628 24.8689C80.4932 24.8416 80.2927 24.8284 80.0603 24.8284ZM87.5174 22.2H90.4088V22.6827H88.0468V24.5983H90.331V25.0801H88.0468V27.0391H90.4088V27.5218H87.5174V22.2ZM101.702 24.9726V24.4824H102.338C102.519 24.4824 102.687 24.4484 102.842 24.3787C102.997 24.3089 103.121 24.2033 103.214 24.0629C103.308 23.9233 103.353 23.7527 103.353 23.5538C103.353 23.3869 103.313 23.2323 103.234 23.0909C103.153 22.9476 103.042 22.8354 102.903 22.7515C102.763 22.6667 102.61 22.6252 102.444 22.6252C102.265 22.6252 102.104 22.6648 101.963 22.743C101.823 22.8222 101.71 22.9306 101.626 23.073C101.541 23.2144 101.492 23.3737 101.48 23.5538H100.928C100.928 23.2879 100.992 23.0447 101.122 22.8241C101.252 22.6035 101.429 22.431 101.652 22.3037C101.875 22.1774 102.118 22.1133 102.38 22.1133C102.657 22.1133 102.908 22.1736 103.138 22.2933C103.367 22.414 103.548 22.5828 103.682 22.8005C103.816 23.0174 103.883 23.2672 103.883 23.5462C103.883 23.9563 103.736 24.2872 103.44 24.5408C103.379 24.5964 103.293 24.654 103.181 24.7143C103.313 24.7756 103.427 24.8529 103.524 24.9453C103.68 25.0791 103.802 25.246 103.889 25.444C103.977 25.6419 104.02 25.8475 104.02 26.0615C104.02 26.3471 103.946 26.6082 103.798 26.8468C103.65 27.0843 103.453 27.2719 103.205 27.4096C102.959 27.5472 102.693 27.6151 102.409 27.6151C102.112 27.6151 101.838 27.5482 101.587 27.4133C101.335 27.2776 101.137 27.09 100.99 26.8468C100.842 26.6045 100.77 26.332 100.77 26.0313H101.335C101.342 26.2255 101.392 26.4046 101.483 26.5677C101.576 26.7308 101.703 26.86 101.864 26.9571C102.024 27.0551 102.201 27.1041 102.395 27.1041C102.595 27.1041 102.779 27.0598 102.945 26.9693C103.112 26.8798 103.244 26.7544 103.341 26.5922C103.441 26.432 103.489 26.2519 103.489 26.053C103.489 25.8578 103.441 25.6768 103.344 25.51C103.247 25.344 103.115 25.2121 102.95 25.1168C102.784 25.0207 102.603 24.9726 102.409 24.9726H101.702ZM109.725 22.2H110.312L112.579 27.5218H112.007L111.242 25.7362H108.779L108.014 27.5218H107.441L109.725 22.2ZM111.034 25.2535L110.019 22.8118L108.987 25.2535H111.034ZM116.244 22.2H120.044V27.5218H119.515V22.6827H116.773V27.5218H116.244V22.2ZM123.981 22.2H124.51V24.1807C124.51 24.3626 124.553 24.522 124.638 24.6568C124.723 24.7925 124.84 24.8953 124.987 24.9669C125.135 25.0376 125.299 25.0735 125.476 25.0735C126.053 25.0735 126.577 24.8906 127.051 24.5257V22.2H127.581V27.5218H127.051V25.0386C126.505 25.3968 125.944 25.5769 125.369 25.5769C125.182 25.5769 125.006 25.5477 124.841 25.4864C124.675 25.4251 124.527 25.3346 124.396 25.2177C124.265 25.0989 124.164 24.9585 124.091 24.7935C124.019 24.6304 123.981 24.4503 123.981 24.2524V22.2ZM133.521 22.2H134.108L136.376 27.5218H135.803L135.038 25.7362H132.576L131.81 27.5218H131.238L133.521 22.2ZM134.831 25.2535L133.815 22.8118L132.784 25.2535H134.831ZM144.133 23.5679C144.003 23.3718 143.84 23.2012 143.641 23.0579C143.443 22.9165 143.228 22.809 142.993 22.7355C142.76 22.662 142.524 22.6252 142.286 22.6252C141.896 22.6252 141.531 22.7279 141.19 22.9335C140.851 23.1399 140.578 23.4133 140.376 23.7565C140.175 24.0996 140.075 24.4607 140.075 24.8425C140.075 25.2469 140.178 25.6231 140.384 25.971C140.589 26.3179 140.866 26.5941 141.213 26.7977C141.56 27.0014 141.93 27.1041 142.322 27.1041C142.676 27.1041 143.019 27.0155 143.347 26.8383C143.675 26.661 143.944 26.4254 144.154 26.1322H144.741C144.588 26.4254 144.387 26.6846 144.134 26.908C143.882 27.1324 143.599 27.3059 143.286 27.4294C142.972 27.5529 142.651 27.6151 142.322 27.6151C141.94 27.6151 141.581 27.5453 141.244 27.4067C140.906 27.2663 140.609 27.0702 140.353 26.8185C140.097 26.5649 139.9 26.2689 139.757 25.9276C139.616 25.5882 139.545 25.2253 139.545 24.8425C139.545 24.3495 139.668 23.8932 139.914 23.4746C140.159 23.056 140.493 22.7242 140.91 22.48C141.33 22.2358 141.787 22.1133 142.279 22.1133C142.852 22.1133 143.36 22.2622 143.804 22.5601C143.99 22.6789 144.173 22.8316 144.352 23.0174C144.531 23.205 144.654 23.3879 144.721 23.5679H144.133ZM148.956 22.6827H147.746V22.2H150.695V22.6827H149.485V27.5218H148.956V22.6827ZM158.396 22.2V27.5218H157.866V22.842L154.867 27.5218H154.33V22.2H154.861V26.6139L157.671 22.2H158.396Z" fill="#0075B1"/>
</g>
<defs>
<clipPath id="clip0_5001_781">
<rect width="160" height="31" fill="white"/>
</clipPath>
</defs>
</svg>
